Coordinates
version=1
nRows=6
nColumns=46
inDegrees=yes

Units are S.I. units (second, meters, Newtons, ...)
Angles are in degrees.

endheader
time	pelvis_tilt	pelvis_list	pelvis_rotation	pelvis_tx	pelvis_ty	pelvis_tz	bb_angle	bb_tx	bb_ty	bb_tz	hip_flexion_r	hip_adduction_r	hip_rotation_r	knee_angle_r	knee_angle_r_beta	ankle_angle_r	subtalar_angle_r	mtp_angle_r	crank_angle_r	hip_flexion_l	hip_adduction_l	hip_rotation_l	knee_angle_l	knee_angle_l_beta	ankle_angle_l	subtalar_angle_l	mtp_angle_l	crank_angle_l	lumbar_extension	lumbar_bending	lumbar_rotation	arm_flex_r	arm_add_r	arm_rot_r	elbow_flex_r	pro_sup_r	wrist_flex_r	wrist_dev_r	arm_flex_l	arm_add_l	arm_rot_l	elbow_flex_l	pro_sup_l	wrist_flex_l	wrist_dev_l
      0.00500000	    -10.95693857	      0.34093269	      0.22122522	      0.06055358	      1.15422693	     -0.23014510	      0.00000000	      0.50000000	      0.00000000	      0.25000000	     72.29853730	     -1.39825784	      5.30418274	     76.58202229	      1.33660844	      3.09921544	    -10.04777637	      0.00000000	      0.00000000	     46.56219059	     -3.58433804	      1.78282722	     76.37495377	      1.33299441	     15.87413142	     -7.94122011	      0.00000000	      0.00000000	    -60.41350607	      0.52488021	     -0.25680772	     87.83328321	    -14.32410421	     37.06078505	     48.73405099	     42.62647328	      0.00000000	      0.00000000	     89.02281598	    -15.58214339	     40.50536539	     45.11207790	     40.92309411	      0.00000000	      0.00000000
      0.01000000	    -10.95694935	      0.33571828	      0.22408485	      0.06054385	      1.15421764	     -0.23014609	      0.00000000	      0.50000000	      0.00000000	      0.25000000	     72.29525068	     -1.39945387	      5.29466708	     76.58210230	      1.33660983	      3.13172015	    -10.05441809	      0.00000000	      0.00000000	     46.56245578	     -3.59294839	      1.78219399	     76.37543681	      1.33300284	     15.88833312	     -7.93015467	      0.00000000	      0.00000000	    -60.41468796	      0.53106580	     -0.23343289	     87.82147302	    -14.38169967	     37.08896874	     48.79732652	     42.73584847	      0.00000000	      0.00000000	     89.03142509	    -15.59864104	     40.59451404	     45.10454851	     41.07723213	      0.00000000	      0.00000000
      0.01500000	    -10.82536149	      0.32036628	      0.25764300	      0.06051885	      1.15453884	     -0.23020930	      0.00000000	      0.50000000	      0.00000000	      0.25000000	     72.11778035	     -1.43630018	      5.23427128	     76.53670394	      1.33581748	      3.09653268	    -10.25768896	      0.00000000	      0.00000000	     46.40628225	     -3.59234397	      1.78855754	     76.33287820	      1.33226005	     15.90404761	     -7.87769851	      0.00000000	      0.00000000	    -60.63698716	      0.56957290	     -0.20395902	     87.70589961	    -14.33635943	     36.42351651	     49.18129106	     42.78579641	      0.00000000	      0.00000000	     89.01789961	    -15.48123998	     40.02000745	     45.25728293	     41.17766412	      0.00000000	      0.00000000
      0.02000000	    -10.85219677	      0.28322206	      0.14862948	      0.06051606	      1.15434833	     -0.22981421	      0.00000000	      0.50000000	      0.00000000	      0.25000000	     72.17346106	     -1.23905522	      5.33984253	     76.60481002	      1.33700616	      3.17280242	    -10.09529589	      0.00000000	      0.00000000	     46.44480372	     -3.71632639	      1.79405951	     76.37838920	      1.33305437	     15.93139663	     -7.85929338	      0.00000000	      0.00000000	    -60.58354099	      0.80392473	     -0.14651116	     87.95245410	    -14.11620031	     36.93718722	     49.08090025	     42.86720442	      0.00000000	      0.00000000	     88.98578111	    -15.93649840	     40.34353396	     45.15910943	     41.27239907	      0.00000000	      0.00000000
      0.02500000	    -10.98114296	      0.02054028	      0.01521331	      0.06060310	      1.15366294	     -0.22931676	      0.00000000	      0.50000000	      0.00000000	      0.25000000	     72.28944423	     -0.93163188	      5.16757356	     76.58483732	      1.33665757	      3.23581991	    -10.09377475	      0.00000000	      0.00000000	     46.86299289	     -4.03204201	      1.81472360	     76.51136377	      1.33537521	     15.69346617	     -5.71259484	      0.00000000	      0.00000000	    -60.46047506	      0.99244777	     -0.07249042	     88.07787127	    -13.72728413	     37.26506479	     48.87662160	     42.87996701	      0.00000000	      0.00000000	     88.98669113	    -15.76930267	     40.73300418	     45.04474307	     41.29902575	      0.00000000	      0.00000000
      0.03000000	    -10.83821319	     -0.18965343	      0.03798872	      0.06084991	      1.15302760	     -0.22936278	      0.00000000	      0.50000000	      0.00000000	      0.25000000	     72.27936856	     -1.06728208	      4.84598096	     76.70738826	      1.33879649	      3.14836454	     -9.70672640	      0.00000000	      0.00000000	     46.77165335	     -3.33854770	      2.94805643	     76.64281532	      1.33766948	     15.24665847	     -6.12184726	      0.00000000	      0.00000000	    -60.53795301	      1.23007266	      0.00748222	     88.10900594	    -13.54860416	     37.38920804	     48.81752235	     42.89110085	      0.00000000	      0.00000000	     88.96363892	    -15.72913096	     40.76068178	     44.84081447	     41.27077997	      0.00000000	      0.00000000
